<svg id="Livello_1" data-name="Livello 1" xmlns="http://www.w3.org/2000/svg" viewBox="0 0 1400 400"><defs><style>.cls-1{fill:#f8e93e;}.cls-2{fill:#70b7e6;}</style></defs><title>Tavola disegno 1</title><circle class="cls-1" cx="757.33" cy="85.78" r="15.77" transform="matrix(0.85, -0.52, 0.52, 0.85, 66.15, 406.99)"/><circle class="cls-1" cx="278.4" cy="240.7" r="27.34"/><path class="cls-2" d="M174.82,109.22l56.62,32.69-32.69,56.62-56.62-32.69Zm53.11,33.63-52.16-30.12L145.64,164.9,197.81,195Z"/><path class="cls-2" d="M900,200.57l-63.54-15.39,15.39-63.54L915.38,137Zm-60.44-17.28,58.54,14.18,14.18-58.54-58.54-14.18Z"/><path class="cls-2" d="M1259.18,166.44l-39.29,52.26-52.26-39.29,39.29-52.26Zm-39.8,48.65,36.2-48.14-48.14-36.2-36.2,48.14Z"/><circle class="cls-1" cx="1097.28" cy="252" r="27.34" transform="translate(626.61 1274.74) rotate(-78.22)"/></svg>