<?xml version="1.0" encoding="UTF-8"?>
<svg width="50px" height="45px" viewBox="0 0 50 45" version="1.1" xmlns="http://www.w3.org/2000/svg" xmlns:xlink="http://www.w3.org/1999/xlink">
    <!-- Generator: Sketch 46.2 (44496) - http://www.bohemiancoding.com/sketch -->
    <title>R</title>
    <desc>Created with Sketch.</desc>
    <defs></defs>
    <g id="Logos" stroke="none" stroke-width="1" fill="none" fill-rule="evenodd">
        <g id="R">
            <path d="M17.9990281,8.25398655 L9.80902591,8.25398655 L9.80902591,20.6669586 L17.7430905,20.6669586 C21.1342633,20.6669586 23.3097326,17.5957078 23.3097326,14.4604726 C23.3097326,11.3892217 21.262232,8.25398655 17.9990281,8.25398655 Z M22.0940291,28.4730544 L33.0353601,44.085246 L21.7741072,44.085246 L11.9205108,28.8569607 L9.80902591,28.8569607 L9.80902591,44.085246 L0.403320312,44.085246 L0.403320312,0 L18.4469188,0 C23.1177794,0 26.7648897,1.40765662 29.260281,4.28695425 C31.8196567,7.10226749 33.0993445,10.4934403 33.0993445,14.4604726 C33.0993445,21.1788337 29.260281,26.937429 22.0940291,28.4730544 Z" fill="#3E3E3E"></path>
            <circle id="Oval" fill="#4299FF" cx="43" cy="37" r="7"></circle>
        </g>
    </g>
</svg>